<!DOCTYPE svg PUBLIC "-//W3C//DTD SVG 1.1//EN" "http://www.w3.org/Graphics/SVG/1.1/DTD/svg11.dtd">
<!-- Uploaded to: SVG Repo, www.svgrepo.com, Transformed by: SVG Repo Mixer Tools -->
<svg fill="#00d5ff" height="64px" width="64px" version="1.1" id="Layer_1" xmlns="http://www.w3.org/2000/svg" xmlns:xlink="http://www.w3.org/1999/xlink" viewBox="0 0 504.535 504.535" xml:space="preserve" stroke="#00d5ff">
<g id="SVGRepo_bgCarrier" stroke-width="0"/>
<g id="SVGRepo_tracerCarrier" stroke-linecap="round" stroke-linejoin="round"/>
<g id="SVGRepo_iconCarrier"> <g> <g> <g> <path d="M501.947,52.528l-12.465-12.465c-0.009-0.009-0.009-0.018-0.018-0.026L464.5,15.073 c-0.009-0.009-0.018-0.018-0.026-0.018L452.009,2.591c-3.443-3.452-9.031-3.452-12.482,0c-3.443,3.443-3.443,9.031,0,12.482 l6.25,6.241l-56.188,56.179l-18.723-18.723c-3.452-3.452-9.039-3.452-12.482,0l-24.964,24.964c-3.452,3.452-3.452,9.031,0,12.482 l-46.839,46.83l18.732,18.732l46.83-46.839l12.482,12.482l-43.688,43.697l12.482,12.482l43.697-43.688l12.482,12.482 l-46.839,46.83l18.732,18.723l46.83-46.83c1.721,1.73,3.981,2.586,6.241,2.586c2.26,0,4.52-0.856,6.241-2.586l24.964-24.964 c3.452-3.443,3.452-9.031,0-12.482l-18.723-18.723l56.179-56.188l6.241,6.25c1.73,1.721,3.99,2.586,6.241,2.586 c2.26,0,4.52-0.865,6.241-2.586C505.398,61.559,505.398,55.971,501.947,52.528z M414.562,152.395l-18.723-18.723l-24.973-24.973 l-18.723-18.723l12.482-12.482l62.42,62.42L414.562,152.395z M414.562,102.457L402.08,89.975l56.179-56.179l12.482,12.482 L414.562,102.457z"/> <path d="M258.507,171.126l37.455,37.455c3.443,3.443,3.443,9.031,0,12.482c-1.73,1.721-3.981,2.586-6.241,2.586 c-2.26,0-4.52-0.865-6.241-2.586l-37.455-37.455l-18.723,18.723l37.455,37.455c3.443,3.443,3.443,9.031,0,12.482 c-1.73,1.721-3.99,2.586-6.25,2.586c-2.251,0-4.511-0.865-6.241-2.586l-37.447-37.455l-18.723,18.723l37.447,37.455 c3.452,3.452,3.452,9.031,0,12.482c-1.721,1.721-3.981,2.586-6.241,2.586c-2.26,0-4.511-0.865-6.241-2.586l-37.447-37.455 l-18.732,18.732c-13.798,13.798-18.158,33.333-13.515,50.971l-16.419,16.419l37.455,37.447l16.411-16.419 c4.44,1.165,8.951,1.969,13.515,1.969c13.559,0,27.127-5.164,37.455-15.484l109.224-109.215l-74.902-74.911L258.507,171.126z"/> <path d="M102.632,364.457c-7.821,7.821-9.057,19.668-3.919,28.884L2.589,489.465c-3.452,3.452-3.452,9.039,0,12.482 c1.721,1.73,3.981,2.586,6.241,2.586c2.26,0,4.52-0.856,6.241-2.586l96.124-96.124c3.655,2.039,7.689,3.16,11.776,3.16 c6.197,0,12.394-2.357,17.108-7.08l19.836-19.836l-37.447-37.447L102.632,364.457z"/> </g> </g> </g> </g>
</svg>